<svg width="102" height="48" viewBox="0 0 102 48" fill="none" xmlns="http://www.w3.org/2000/svg">
<path d="M0 8H96V38H0V8Z" fill="#9F9F9F"/>
<path d="M16.1033 47.6996L4.77333 33.8478L27.2028 33.6625L16.1033 47.6996Z" fill="#9F9F9F"/>
<path d="M6 0H102V30H6V0Z" fill="#6A1C7D"/>
<path d="M26.1033 42.7164L14.7733 28.8646L37.2028 28.6793L26.1033 42.7164Z" fill="#6A1C7D"/>
<path d="M18.1136 23V5.54545H20.2273V21.125H28.3409V23H18.1136Z" fill="white"/>
<path d="M36.6591 23.2727C35.4773 23.2727 34.4403 22.9915 33.5483 22.429C32.6619 21.8665 31.9688 21.0795 31.4688 20.0682C30.9744 19.0568 30.7273 17.875 30.7273 16.5227C30.7273 15.1591 30.9744 13.9687 31.4688 12.9517C31.9688 11.9347 32.6619 11.1449 33.5483 10.5824C34.4403 10.0199 35.4773 9.73864 36.6591 9.73864C37.8409 9.73864 38.875 10.0199 39.7614 10.5824C40.6534 11.1449 41.3466 11.9347 41.8409 12.9517C42.3409 13.9687 42.5909 15.1591 42.5909 16.5227C42.5909 17.875 42.3409 19.0568 41.8409 20.0682C41.3466 21.0795 40.6534 21.8665 39.7614 22.429C38.875 22.9915 37.8409 23.2727 36.6591 23.2727ZM36.6591 21.4659C37.5568 21.4659 38.2955 21.2358 38.875 20.7756C39.4545 20.3153 39.8835 19.7102 40.1619 18.9602C40.4403 18.2102 40.5795 17.3977 40.5795 16.5227C40.5795 15.6477 40.4403 14.8324 40.1619 14.0767C39.8835 13.321 39.4545 12.7102 38.875 12.2443C38.2955 11.7784 37.5568 11.5455 36.6591 11.5455C35.7614 11.5455 35.0227 11.7784 34.4432 12.2443C33.8636 12.7102 33.4347 13.321 33.1562 14.0767C32.8778 14.8324 32.7386 15.6477 32.7386 16.5227C32.7386 17.3977 32.8778 18.2102 33.1562 18.9602C33.4347 19.7102 33.8636 20.3153 34.4432 20.7756C35.0227 21.2358 35.7614 21.4659 36.6591 21.4659Z" fill="white"/>
<path d="M50.9453 28.1818C49.9737 28.1818 49.1385 28.0568 48.4396 27.8068C47.7408 27.5625 47.1584 27.2386 46.6925 26.8352C46.2322 26.4375 45.8658 26.0114 45.593 25.5568L47.1953 24.4318C47.3771 24.6705 47.6072 24.9432 47.8857 25.25C48.1641 25.5625 48.5447 25.8324 49.0277 26.0597C49.5163 26.2926 50.1555 26.4091 50.9453 26.4091C52.0021 26.4091 52.8743 26.1534 53.5618 25.642C54.2493 25.1307 54.593 24.3295 54.593 23.2386V20.5795H54.4226C54.2749 20.8182 54.0646 21.1136 53.7919 21.4659C53.5249 21.8125 53.1385 22.1222 52.6328 22.3949C52.1328 22.6619 51.4567 22.7955 50.6044 22.7955C49.5476 22.7955 48.5987 22.5455 47.7578 22.0455C46.9226 21.5455 46.2607 20.8182 45.772 19.8636C45.2891 18.9091 45.0476 17.75 45.0476 16.3864C45.0476 15.0455 45.2834 13.8778 45.755 12.8835C46.2266 11.8835 46.8828 11.1108 47.7237 10.5653C48.5646 10.0142 49.5362 9.73864 50.6385 9.73864C51.4908 9.73864 52.1669 9.88068 52.6669 10.1648C53.1726 10.4432 53.559 10.7614 53.826 11.1193C54.0987 11.4716 54.3089 11.7614 54.4567 11.9886H54.6612V9.90909H56.6044V23.375C56.6044 24.5 56.3487 25.4148 55.8374 26.1193C55.3317 26.8295 54.6499 27.3494 53.7919 27.679C52.9396 28.0142 51.9908 28.1818 50.9453 28.1818ZM50.8771 20.9886C51.684 20.9886 52.3658 20.804 52.9226 20.4347C53.4794 20.0653 53.9027 19.5341 54.1925 18.8409C54.4822 18.1477 54.6271 17.3182 54.6271 16.3523C54.6271 15.4091 54.4851 14.5767 54.201 13.8551C53.9169 13.1335 53.4965 12.5682 52.9396 12.1591C52.3828 11.75 51.6953 11.5455 50.8771 11.5455C50.0249 11.5455 49.3146 11.7614 48.7464 12.1932C48.1839 12.625 47.7607 13.2045 47.4766 13.9318C47.1982 14.6591 47.0589 15.4659 47.0589 16.3523C47.0589 17.2614 47.201 18.0653 47.4851 18.7642C47.7749 19.4574 48.201 20.0028 48.7635 20.4006C49.3317 20.7926 50.0362 20.9886 50.8771 20.9886Z" fill="white"/>
<path d="M60.2862 23V9.90909H62.2976V23H60.2862ZM61.3089 7.72727C60.9169 7.72727 60.5788 7.59375 60.2947 7.3267C60.0163 7.05966 59.8771 6.73864 59.8771 6.36364C59.8771 5.98864 60.0163 5.66761 60.2947 5.40057C60.5788 5.13352 60.9169 5 61.3089 5C61.701 5 62.0362 5.13352 62.3146 5.40057C62.5987 5.66761 62.7408 5.98864 62.7408 6.36364C62.7408 6.73864 62.5987 7.05966 62.3146 7.3267C62.0362 7.59375 61.701 7.72727 61.3089 7.72727Z" fill="white"/>
<path d="M67.8565 18.2273L67.8224 15.7386H68.2315L73.9588 9.90909H76.4474L70.3452 16.0795H70.1747L67.8565 18.2273ZM65.9815 23V5.54545H67.9929V23H65.9815ZM74.2997 23L69.1861 16.5227L70.6179 15.125L76.8565 23H74.2997Z" fill="white"/>
<path d="M82.8885 23.3068C82.059 23.3068 81.3061 23.1506 80.63 22.8381C79.9538 22.5199 79.4169 22.0625 79.0192 21.4659C78.6214 20.8636 78.4226 20.1364 78.4226 19.2841C78.4226 18.5341 78.5703 17.9261 78.8658 17.4602C79.1612 16.9886 79.5561 16.6193 80.0504 16.3523C80.5447 16.0852 81.0902 15.8864 81.6868 15.7557C82.2891 15.6193 82.8942 15.5114 83.5021 15.4318C84.2976 15.3295 84.9425 15.2528 85.4368 15.2017C85.9368 15.1449 86.3004 15.0511 86.5277 14.9205C86.7607 14.7898 86.8771 14.5625 86.8771 14.2386V14.1705C86.8771 13.3295 86.647 12.6761 86.1868 12.2102C85.7322 11.7443 85.0419 11.5114 84.1158 11.5114C83.1555 11.5114 82.4027 11.7216 81.8572 12.142C81.3118 12.5625 80.9283 13.0114 80.7067 13.4886L78.7976 12.8068C79.1385 12.0114 79.593 11.392 80.1612 10.9489C80.7351 10.5 81.3601 10.1875 82.0362 10.0114C82.718 9.82955 83.3885 9.73864 84.0476 9.73864C84.468 9.73864 84.951 9.78977 85.4965 9.89204C86.0476 9.98864 86.5788 10.1903 87.0902 10.4972C87.6072 10.804 88.0362 11.267 88.3771 11.8864C88.718 12.5057 88.8885 13.3352 88.8885 14.375V23H86.8771V21.2273H86.7749C86.6385 21.5114 86.4112 21.8153 86.093 22.1392C85.7749 22.4631 85.3516 22.7386 84.8232 22.9659C84.2947 23.1932 83.6499 23.3068 82.8885 23.3068ZM83.1953 21.5C83.9908 21.5 84.6612 21.3438 85.2067 21.0312C85.7578 20.7188 86.1726 20.3153 86.451 19.821C86.7351 19.3267 86.8771 18.8068 86.8771 18.2614V16.4205C86.7919 16.5227 86.6044 16.6165 86.3146 16.7017C86.0305 16.7812 85.701 16.8523 85.326 16.9148C84.9567 16.9716 84.5959 17.0227 84.2436 17.0682C83.897 17.108 83.6158 17.142 83.3999 17.1705C82.8771 17.2386 82.3885 17.3494 81.934 17.5028C81.4851 17.6506 81.1214 17.875 80.843 18.1761C80.5703 18.4716 80.434 18.875 80.434 19.3864C80.434 20.0852 80.6925 20.6136 81.2095 20.9716C81.7322 21.3239 82.3942 21.5 83.1953 21.5Z" fill="white"/>
</svg>
